<svg xmlns="http://www.w3.org/2000/svg" width="1520" height="50" aria-hidden="true" class="svg-zooey-blobs" viewBox="0 0 1520 50"><path fill="#ff6b6b" d="M529.6 14.7c20.4 24.4-4.4 38.5-38.2 22.4-15-7.1-45.5 19.4-48.3-6.6-1.7-15 22-26.2 44.5-26.2s30.7-3.1 42 10.4zM788.7 13.4c-38.1 30.5 8.3 48.1 71.5 28 28.2-9 85.1 24.2 90.4-8.3C953.7 14.3 909.4.4 867.3.4c-42.1 0-57.5-3.9-78.6 13zM1297.1 35.2c24.5-22.3-5.3-35.1-45.8-20.4-18 6.5-54.6-17.7-58 6-2 13.8 26.5 24 53.5 24s36.8 2.8 50.3-9.6z"/><path fill="#5f1a37" d="M12 12c51.5-22.6 159.6 13.4 239.2 11.2 39-1 77.8-7.7 116.8-8 25.4-.2 51.4-2.2 76 4 74 37.6 160 13 239.2 4.8 40.4-3.6 80.3-12.7 120.8-15.2 15.4-1 31.7-4.7 46.4 0 30 20.6 60.2 33.4 88 0 15.8-13.5 41.6.8 62.4 2.4 46.9 3.7 93.2 12 140 16.8a561.5 561.5 0 0 0 202.4-14.4c49.5-13.3 100.1-14 164-8 4 .4 4.7 8.6 2.4 12-11.7 17.3-40.9 9-61.6 11.2-27.3 3-55.2 7-82.4 3.2-7.5-1-14-8-21.6-7.2-13.6 1.4-22 17.5-35.2 20.8-41.7 10.4-85.8-6-128.8-5.6-25.6.2-51.2 6.3-76.8 4.8C1048.7 41.6 994 17.1 977.6 20c-12.4 2.2-17 28.6-101.6 24.8-42.5-1.9-76.5-22.5-86.4-24-36.7-5.4-70.7 8.7-105.6 15.2a557.4 557.4 0 0 1-68 5.6c-52.6-1.4-105 3.9-157.6 4-45.5 0-127-19-160.8-16.8-20.2 1.3-39 11.7-59.2 13.6-85.9 8-142.3-15.1-152-16-22.1-2-47.5 16.4-66.4 4.8-5.9-3.6-14.4-16.4-8-19.2Z"/></svg>
