<svg xmlns="http://www.w3.org/2000/svg" width="1522" height="192" aria-hidden="true" class="svg-zooey-fingers-lines" viewBox="0 0 1522 192"><path fill="none" stroke="currentColor" stroke-width="2" d="M77-19v58c0 42 34 76 76 76v38c0 20.987 17.013 38 38 38s38-17.013 38-38V39c0-20.987 19.375-38 38-38l-1.142-20zM267 1c17.873 0 38 17.013 38 38v-58h-39.142zm114-20v58c0 41.974 34.026 76 76 76s76-34.026 76-76c0-20.987 17.013-38 38-38l-.521-20zM571 1c20.987 0 38 17.013 38 38v114c0 20.987 17.013 38 38 38s38-17.013 38-38v-38c42 0 76-34 76-76v-58H570.479Zm266-20v58c0-20.987 17.013-38 38-38l-.115-20zm38 20c20.987 0 38 17.013 38 38 .685 50.112 48.836 85.853 97 72a38 38 0 0 1-21-34c0-20.987 17.013-38 38-38a38 38 0 0 1 34 21 76 76 0 0 0 4-21v114c0 20.987 17.013 38 38 38s38-17.013 38-38V-19H874.885Zm342-20v58c0 42 34 76 76 76v38c0 20.987 17.013 38 38 38s38-17.013 38-38V39c0-20.987 17.013-38 38-38l-.076-20zm190 20c20.987 0 38 17.013 38 38v-58h-38.076z"/><path fill="none" stroke="currentColor" stroke-width="2" d="M1-39V77c0 20.987 17.013 38 38 38s38-17.013 38-38V-39Zm152 0v154c42 0 76-34 76-76v-78zm76 78c0 20.987 17.013 38 38 38s38-17.013 38-38-20.087-38-38-38-38 17.013-38 38Zm76 0v38c0 20.987 17.013 38 38 38s38-17.013 38-38V29.226 153c0 20.987 17.013 38 38 38s38-17.013 38-38V-39H305Zm76 114c0-20.987-17.013-38-38-38s-38 17.013-38 38 17.013 38 38 38 38-17.013 38-38zM571 1a38 38 0 1 0 14.542 73.107A38 38 0 0 0 609 39c0-21-17-38-38-38Zm38 38c0 42 34 76 76 76V-39h-76Zm152-78V77c0 20.987 17.013 38 38 38s38-17.013 38-38V-39Zm76 78c0 20.987 17.013 38 38 38s38-17.013 38-38-17.013-38-38-38-38 17.013-38 38Zm38 38c-21 0-38 17-38 38v38c0 20.987 17.013 38 38 38s38-17.013 38-38v-38c0-21-17-38-38-38Zm190-116V77c0 20.987 17.013 38 38 38s38-17.013 38-38v76c0 20.987 17.013 38 38 38s38-17.013 38-38V-39Zm0 116c0-20.987-17.013-38-38-38s-38 17.013-38 38 17.013 38 38 38 38-17.013 38-38zm228-116v154c42 0 76-34 76-76v-78zm76 78c0 20.987 17.013 38 38 38s38-17.013 38-38-17.013-38-38-38-38 17.013-38 38zm38 38a38 38 0 1 0 38 38c0-21-17-38-38-38zm38-116v92c0 20.987 17.013 38 38 38s38-17.013 38-38v-92z"/></svg>
