<svg xmlns="http://www.w3.org/2000/svg" width="1520" height="190" aria-hidden="true" class="svg-zooey-fingers" viewBox="0 0 1520 190"><path fill="#ff6b6b" d="M76 0v38c0 42 34 76 76 76v38a38 38 0 1 0 76 0V38a38 38 0 0 1 38-38Zm190 0a38 38 0 0 1 38 38V0Zm114 0v38a76 76 0 1 0 152 0 38 38 0 0 1 38-38zm190 0a38 38 0 0 1 38 38v114a38 38 0 1 0 76 0v-38c42 0 76-34 76-76V0Zm266 0v38a38 38 0 0 1 38-38Zm38 0a38 38 0 0 1 38 38 76 76 0 1 0 152 0v114a38 38 0 1 0 76 0V0Zm342 0v38c0 42 34 76 76 76v38a38 38 0 1 0 76 0V38a38 38 0 0 1 38-38zm190 0a38 38 0 0 1 38 38V0Z"/><path fill="#5f1a37" d="M0 0v76a38 38 0 1 0 76 0V0Zm152 0v114c42 0 76-34 76-76V0Zm76 38a38 38 0 1 0 76 0c0-21-17-38-38-38s-38 17-38 38Zm76 0v38a38 38 0 1 0 76 0v76a38 38 0 1 0 76 0V0H304Zm76 114c0-21-17-38-38-38s-38 17-38 38a38 38 0 1 0 76 0zM570 0a38 38 0 1 0 38 38c0-21-17-38-38-38zm38 38c0 42 34 76 76 76V0h-76ZM760 0v76a38 38 0 1 0 76 0V0Zm76 38a38 38 0 1 0 76 0c0-21-17-38-38-38s-38 17-38 38Zm38 38c-21 0-38 17-38 38v38a38 38 0 1 0 76 0v-38c0-21-17-38-38-38Zm190-76v76a38 38 0 1 0 76 0v76a38 38 0 1 0 76 0V0Zm0 76c0-21-17-38-38-38s-38 17-38 38a38 38 0 1 0 76 0zm228-76v114c42 0 76-34 76-76V0Zm76 38a38 38 0 1 0 76 0c0-21-17-38-38-38s-38 17-38 38Zm38 38a38 38 0 1 0 38 38c0-21-17-38-38-38zm38-76v52a38 38 0 1 0 76 0V0Z"/></svg>
