<?xml version="1.0" encoding="UTF-8" standalone="no"?>
<svg
   width="900"
   height="740"
   viewBox="0 0 900 740"
   version="1.1"
   id="svg8"
   inkscape:version="1.3.2 (091e20e, 2023-11-25, custom)"
   sodipodi:docname="laptop.svg"
   xml:space="preserve"
   inkscape:export-filename="export/zooey-screenshot-laptop.png"
   inkscape:export-xdpi="96"
   inkscape:export-ydpi="96"
   xmlns:inkscape="http://www.inkscape.org/namespaces/inkscape"
   xmlns:sodipodi="http://sodipodi.sourceforge.net/DTD/sodipodi-0.dtd"
   xmlns:xlink="http://www.w3.org/1999/xlink"
   xmlns="http://www.w3.org/2000/svg"
   xmlns:svg="http://www.w3.org/2000/svg"
   xmlns:rdf="http://www.w3.org/1999/02/22-rdf-syntax-ns#"
   xmlns:cc="http://creativecommons.org/ns#"
   xmlns:dc="http://purl.org/dc/elements/1.1/"><sodipodi:namedview
     id="base"
     pagecolor="#ffffff"
     bordercolor="#7d7d7d"
     borderopacity="0.49019608"
     inkscape:pageopacity="0"
     inkscape:pageshadow="2"
     inkscape:zoom="0.8"
     inkscape:cx="505.625"
     inkscape:cy="315"
     inkscape:document-units="px"
     inkscape:current-layer="svg8"
     showgrid="false"
     inkscape:snap-bbox="true"
     inkscape:bbox-paths="true"
     inkscape:bbox-nodes="true"
     inkscape:object-paths="true"
     units="px"
     borderlayer="true"
     inkscape:showpageshadow="false"
     inkscape:pagecheckerboard="false"
     showguides="false"
     inkscape:guide-bbox="true"
     inkscape:document-rotation="0"
     inkscape:deskcolor="#ffffff"><sodipodi:guide
       position="760,409"
       orientation="-1,0"
       id="guide4487"
       inkscape:locked="false"
       inkscape:label=""
       inkscape:color="rgb(0,0,255)" /><sodipodi:guide
       position="-266,1940"
       orientation="0,1"
       id="guide4497"
       inkscape:locked="false"
       inkscape:label=""
       inkscape:color="rgb(0,0,255)" /><inkscape:grid
       type="xygrid"
       id="grid4499"
       spacingx="1"
       spacingy="1"
       empspacing="20"
       dotted="false"
       originx="-166"
       originy="-40"
       units="px"
       visible="false" /><sodipodi:guide
       position="140,485.41602"
       orientation="1,0"
       id="guide14"
       inkscape:locked="false" /><sodipodi:guide
       position="512,603"
       orientation="0,-1"
       id="guide15"
       inkscape:locked="false" /><sodipodi:guide
       position="537,760"
       orientation="0,-1"
       id="guide16"
       inkscape:locked="false" /></sodipodi:namedview><defs
     id="defs2"><pattern
       inkscape:collect="always"
       xlink:href="#pattern3"
       preserveAspectRatio="xMidYMid"
       id="pattern18"
       patternTransform="translate(429.5,-431.75)" /><rect
       x="188"
       y="33"
       width="552"
       height="89.334145"
       id="rect10" /><linearGradient
       id="linearGradient14"
       inkscape:collect="always"><stop
         style="stop-color:#000000;stop-opacity:1;"
         offset="0"
         id="stop14" /><stop
         style="stop-color:#000000;stop-opacity:0;"
         offset="1"
         id="stop15" /></linearGradient><linearGradient
       id="linearGradient12"
       inkscape:collect="always"><stop
         style="stop-color:#000000;stop-opacity:0;"
         offset="0"
         id="stop12" /><stop
         style="stop-color:#000000;stop-opacity:1;"
         offset="1"
         id="stop13" /></linearGradient><linearGradient
       id="linearGradient10"
       inkscape:collect="always"><stop
         style="stop-color:#000000;stop-opacity:1;"
         offset="0"
         id="stop10" /><stop
         style="stop-color:#000000;stop-opacity:0;"
         offset="1"
         id="stop11" /></linearGradient><linearGradient
       inkscape:collect="always"
       xlink:href="#linearGradient10"
       id="linearGradient11"
       x1="579.25"
       y1="645.04169"
       x2="579.25"
       y2="633.79169"
       gradientUnits="userSpaceOnUse" /><radialGradient
       inkscape:collect="always"
       xlink:href="#linearGradient12"
       id="radialGradient13"
       cx="616.17676"
       cy="568.84735"
       fx="615.56317"
       fy="561.58911"
       r="73"
       gradientTransform="matrix(-1,-1.0754677e-6,1.7142717e-7,-0.15939779,1231.9999,714.40359)"
       gradientUnits="userSpaceOnUse" /><filter
       inkscape:collect="always"
       style="color-interpolation-filters:sRGB"
       id="filter13"
       x="-0.1695959"
       y="-0.46159579"
       width="1.3391918"
       height="1.9231916"><feGaussianBlur
         inkscape:collect="always"
         stdDeviation="44.236264"
         id="feGaussianBlur13" /></filter><filter
       inkscape:collect="always"
       style="color-interpolation-filters:sRGB"
       id="filter14"
       x="-0.089865849"
       y="-0.1377943"
       width="1.1797317"
       height="1.2755886"><feGaussianBlur
         inkscape:collect="always"
         stdDeviation="25.836432"
         id="feGaussianBlur14" /></filter><linearGradient
       inkscape:collect="always"
       xlink:href="#linearGradient14"
       id="linearGradient15"
       x1="593"
       y1="642"
       x2="593"
       y2="897"
       gradientUnits="userSpaceOnUse" /><filter
       inkscape:collect="always"
       style="color-interpolation-filters:sRGB"
       id="filter15"
       x="-0.055912665"
       y="-0.073757133"
       width="1.1118253"
       height="1.1475143"><feGaussianBlur
         inkscape:collect="always"
         stdDeviation="14.444105"
         id="feGaussianBlur15" /></filter><clipPath
       clipPathUnits="userSpaceOnUse"
       id="clipPath9"><path
         id="path14"
         style="display:inline;opacity:0.5;fill:#afdde9;stroke:none;stroke-width:4.02469;stroke-linecap:square"
         d="m 316,137 c -5.53999,0 -10,4.02275 -10,9.01961 V 288.15418 587.98039 597 h 10 600 10 V 587.98039 288.15418 146.01961 C 926,141.02275 921.53999,137 916,137 Z" /></clipPath><rect
       x="188"
       y="33"
       width="552"
       height="89.334145"
       id="rect10-1" /><symbol
       id="phosphor-youtube-logo-light"
       width="32"
       height="32"
       viewBox="0 0 32 32"
       x="720"
       y="3696"><title
         id="title1">phosphor-youtube-logo-light_inkscape_duplicate</title><path
         d="m 20.416,15.375 -6,-4 C 14.299,11.296 14.155,11.249 14,11.249 c -0.414,0 -0.75,0.336 -0.75,0.75 0,0 0,10e-4 0,10e-4 v 0 8 c 0,0 0,0.001 0,0.001 0,0.414 0.336,0.75 0.75,0.75 0.155,0 0.299,-0.047 0.419,-0.128 l -0.003,0.002 6,-4 c 0.203,-0.136 0.335,-0.365 0.335,-0.625 0,-0.26 -0.132,-0.489 -0.333,-0.623 l -0.003,-0.002 z m -5.666,3.224 v -5.197 l 3.898,2.599 z M 29.05,8.75 C 28.823,7.887 28.208,7.202 27.409,6.882 L 27.39,6.875 C 23.125,5.224 16.284,5.25 16,5.25 15.716,5.25 8.875,5.224 4.605,6.875 3.789,7.203 3.176,7.888 2.954,8.731 L 2.95,8.75 c -0.319,1.236 -0.7,3.5 -0.7,7.25 0,3.75 0.381,6.014 0.7,7.25 0.227,0.863 0.842,1.548 1.641,1.868 L 4.61,25.125 C 8.875,26.776 15.715,26.75 16,26.75 h 0.089 c 0.864,0 7.25,-0.055 11.306,-1.625 0.818,-0.327 1.433,-1.012 1.656,-1.856 l 0.004,-0.019 c 0.319,-1.234 0.7,-3.491 0.7,-7.25 0,-3.759 -0.38,-6.014 -0.705,-7.25 z m -1.452,14.125 c -0.101,0.394 -0.379,0.707 -0.742,0.855 l -0.008,0.003 C 22.848,25.274 16.073,25.25 16,25.25 15.927,25.25 9.161,25.275 5.156,23.729 4.785,23.578 4.507,23.265 4.408,22.88 L 4.406,22.871 C 4.105,21.722 3.75,19.597 3.75,16 3.75,12.403 4.105,10.277 4.402,9.125 4.503,8.731 4.781,8.418 5.144,8.271 L 5.152,8.268 C 9.007,6.783 15.441,6.75 15.97,6.75 H 16 c 0.067,0 6.839,-0.025 10.844,1.521 0.371,0.151 0.649,0.464 0.748,0.849 l 0.002,0.009 c 0.297,1.149 0.652,3.274 0.652,6.875 0,3.601 -0.351,5.719 -0.649,6.871 z"
         id="path1248" /></symbol><filter
       style="color-interpolation-filters:sRGB"
       inkscape:label="Drop Shadow"
       id="filter22"
       x="-0.054"
       y="-0.30857143"
       width="1.108"
       height="1.76"><feFlood
         result="flood"
         in="SourceGraphic"
         flood-opacity="0.250980"
         flood-color="rgb(0,0,0)"
         id="feFlood21" /><feGaussianBlur
         result="blur"
         in="SourceGraphic"
         stdDeviation="9.000000"
         id="feGaussianBlur21" /><feOffset
         result="offset"
         in="blur"
         dx="0.000000"
         dy="10.000000"
         id="feOffset21" /><feComposite
         result="comp1"
         operator="in"
         in="flood"
         in2="offset"
         id="feComposite21" /><feComposite
         result="comp2"
         operator="out"
         in="comp1"
         in2="SourceGraphic"
         id="feComposite22" /></filter><pattern
       inkscape:collect="always"
       xlink:href="#pattern108"
       preserveAspectRatio="xMidYMid"
       id="pattern1"
       patternTransform="translate(1295.5,-333)" /><pattern
       patternUnits="userSpaceOnUse"
       width="226"
       height="226"
       patternTransform="translate(1129.5,-373)"
       preserveAspectRatio="xMidYMid"
       id="pattern108"
       style="fill:#000000"
       inkscape:label="pattern108"><image
         width="226"
         height="226"
         preserveAspectRatio="none"
         xlink:href="helpers/pattern-waves-45deg.png"
         id="image1-78"
         x="0"
         y="0" /></pattern><pattern
       patternUnits="userSpaceOnUse"
       width="226"
       height="226"
       patternTransform="translate(429.5,-431.75)"
       preserveAspectRatio="xMidYMid"
       id="pattern3"
       style="fill:#000000"
       inkscape:label="pattern3"><image
         width="226"
         height="226"
         preserveAspectRatio="none"
         xlink:href="helpers/pattern-waves-45deg-inverted.png"
         id="image1"
         x="0"
         y="0" /></pattern></defs><metadata
     id="metadata5"><rdf:RDF><cc:Work
         rdf:about=""><dc:format>image/svg+xml</dc:format><dc:type
           rdf:resource="http://purl.org/dc/dcmitype/StillImage" /><cc:license
           rdf:resource="http://creativecommons.org/publicdomain/zero/1.0/" /></cc:Work><cc:License
         rdf:about="http://creativecommons.org/publicdomain/zero/1.0/"><cc:permits
           rdf:resource="http://creativecommons.org/ns#Reproduction" /><cc:permits
           rdf:resource="http://creativecommons.org/ns#Distribution" /><cc:permits
           rdf:resource="http://creativecommons.org/ns#DerivativeWorks" /></cc:License></rdf:RDF></metadata><g
     inkscape:groupmode="layer"
     id="layer4"
     inkscape:label="bg"
     style="display:inline"
     transform="translate(-166,-40)"
     sodipodi:insensitive="true"><path
       id="rect14-0"
       style="display:inline;fill:#5f1a37;fill-opacity:1;stroke-width:3.23506;stroke-linecap:round;stroke-linejoin:round"
       d="m 166,40 h 900 V 780 H 166 Z"
       sodipodi:nodetypes="ccccc"
       inkscape:export-filename="../export\hilda-screenshot-laptop.png"
       inkscape:export-xdpi="65.706665"
       inkscape:export-ydpi="65.706665" /><rect
       style="fill:#f7fff7;fill-opacity:1;stroke-width:6;stroke-linejoin:bevel;stroke-miterlimit:2;stroke-dashoffset:4.8"
       id="rect3"
       width="200"
       height="200"
       x="1186"
       y="0" /><rect
       style="fill:#e7efe7;fill-opacity:1;stroke-width:6;stroke-linejoin:bevel;stroke-miterlimit:2;stroke-dashoffset:4.8"
       id="rect4"
       width="200"
       height="200"
       x="1386"
       y="0" /><rect
       style="fill:#5f1a37;fill-opacity:1;stroke-width:6;stroke-linejoin:bevel;stroke-miterlimit:2;stroke-dashoffset:4.8"
       id="rect5"
       width="200"
       height="200"
       x="1186"
       y="200" /><rect
       style="fill:#e4e2df;fill-opacity:1;stroke-width:6;stroke-linejoin:bevel;stroke-miterlimit:2;stroke-dashoffset:4.8"
       id="rect6"
       width="200"
       height="200"
       x="1386"
       y="200" /><rect
       style="fill:#ff6b6b;fill-opacity:1;stroke-width:6;stroke-linejoin:bevel;stroke-miterlimit:2;stroke-dashoffset:4.8"
       id="rect7"
       width="200"
       height="200"
       x="1186"
       y="400" /><rect
       style="fill:#fac6c2;fill-opacity:1;stroke-width:6;stroke-linejoin:bevel;stroke-miterlimit:2;stroke-dashoffset:4.8"
       id="rect8"
       width="200"
       height="200"
       x="1386"
       y="400" /><rect
       style="fill:#474f47;fill-opacity:1;stroke-width:6;stroke-linejoin:bevel;stroke-miterlimit:2;stroke-dashoffset:4.8"
       id="rect9"
       width="200"
       height="200"
       x="1586"
       y="0" /><path
       id="rect14"
       style="display:inline;opacity:1;fill:url(#pattern18);fill-opacity:1;stroke-width:3.23506;stroke-linecap:round;stroke-linejoin:round"
       d="M 1066,400 V 780 H 166 V 400 Z"
       sodipodi:nodetypes="ccccc" /><rect
       style="fill:#171f17;fill-opacity:1;stroke-width:6;stroke-linejoin:bevel;stroke-miterlimit:2;stroke-dashoffset:4.8"
       id="rect2"
       width="200"
       height="200"
       x="1786"
       y="0" /><rect
       style="fill:url(#pattern1);stroke:none"
       width="226"
       height="226"
       x="844"
       y="-414"
       id="rect108" /><rect
       style="fill:url(#pattern3);stroke:none"
       transform="translate(166,40)"
       width="226"
       height="226"
       x="429.5"
       y="-431.75"
       id="rect18" /></g><g
     inkscape:groupmode="layer"
     id="layer3"
     inkscape:label="shadow"
     style="display:inline;opacity:0.5;mix-blend-mode:overlay"
     transform="translate(-166,-60)"
     sodipodi:insensitive="true"><rect
       style="display:inline;opacity:0.5;mix-blend-mode:normal;fill:#000000;stroke:none;stroke-width:3.98825;stroke-linecap:square;filter:url(#filter14)"
       id="rect1-9"
       width="690"
       height="450"
       x="271"
       y="225"
       rx="20"
       ry="19.911505" /><path
       id="rect1-0"
       style="display:inline;mix-blend-mode:normal;fill:url(#linearGradient15);fill-opacity:1;stroke-width:3.79879;stroke-linecap:square;filter:url(#filter13)"
       d="M 383,817 H 849 L 929,587 H 303 Z"
       sodipodi:nodetypes="ccccc" /><path
       id="rect1-5-5"
       style="display:inline;opacity:0.33;mix-blend-mode:normal;fill:#000000;stroke:none;stroke-width:4.02469;stroke-linecap:square;filter:url(#filter15)"
       d="m 316,177 c -5.53999,0 -10,4.46001 -10,10 V 304.58398 637 647 h 10 600 10 V 637 304.58398 187 c 0,-5.53999 -4.46001,-10 -10,-10 z"
       sodipodi:nodetypes="ssccccccccsss" /></g><g
     inkscape:groupmode="layer"
     id="layer1"
     inkscape:label="laptop"
     transform="translate(-166,-45.291667)"
     style="display:inline;opacity:1"><g
       id="g13"
       transform="translate(0,20)"><g
         id="g14"
         style="fill:#ff6b6b;fill-opacity:1"><rect
           style="opacity:1;fill:#ff6b6b;fill-opacity:1;stroke:none;stroke-width:3.98825;stroke-linecap:square"
           id="rect1"
           width="690"
           height="450"
           x="271"
           y="182.29167"
           rx="20"
           ry="19.911505" /><path
           style="color:#000000;opacity:1;fill:#ff6b6b;fill-opacity:1;stroke:none;stroke-linecap:round;stroke-linejoin:round;-inkscape-stroke:none"
           d="m 282.9199,624.29302 -74,3 c -1.07235,0.0431 -1.91958,0.92479 -1.9199,1.998 v 6 c -4.8e-4,0.97085 0.69628,1.80186 1.65234,1.9707 38.82621,6.84541 81.54443,8.0293 123.84766,8.0293 h 567 c 0.043,5e-5 0.086,-10e-4 0.12891,-0.004 l 123.49999,-8 c 1.0523,-0.0681 1.8711,-0.94145 1.8711,-1.996 v -6 c -3e-4,-1.07323 -0.8475,-1.95496 -1.9199,-1.99805 l -74.00002,-3 c 0,0 -51.76548,0.0169 -666.16018,5e-5 z"
           id="path7"
           sodipodi:nodetypes="cccccscccscccc" /></g><path
         id="path8"
         style="color:#000000;opacity:0.2;fill:url(#linearGradient11);fill-opacity:1;stroke:none;stroke-linecap:round;stroke-linejoin:round;-inkscape-stroke:none"
         d="m 207,635.29167 c -4.8e-4,0.97085 0.69628,1.80186 1.65234,1.9707 38.82617,6.8454 81.54447,8.0293 123.84766,8.0293 h 567 c 0.043,5e-5 0.086,-9.1e-4 0.12891,-0.004 l 123.49999,-8 c 1.0523,-0.0681 1.8711,-0.94154 1.8711,-1.99609 0,0 -171.16504,2 -409,2 -237.83496,0 -409,-2 -409,-2 z"
         sodipodi:nodetypes="ccscccczc" /><path
         id="path11"
         style="opacity:0.15;fill:url(#radialGradient13);stroke:none;stroke-width:0.273481;stroke-linecap:square"
         d="m 543,628.29167 c 0,2.77 2.23,5 5,5 h 136 c 2.77,0 5,-2.23 5,-5 z" /></g></g><path
     id="rect16"
     style="fill:#ff6b6b;fill-opacity:1;stroke:#5f1a37;stroke-width:2;stroke-linecap:square;stroke-miterlimit:2;stroke-dashoffset:4.8;stroke-opacity:0.33000001"
     d="m 147,96 c -6.64798,0 -12,5.35202 -12,12 v 470 c 0,2.216 1.784,4 4,4 h 622 c 2.216,0 4,-1.784 4,-4 V 108 c 0,-6.64798 -5.35202,-12 -12,-12 z"
     sodipodi:nodetypes="sssssssss" /><g
     id="layer5"
     inkscape:label="screen"
     style="display:inline;opacity:1"
     transform="translate(-166,-20)"><g
       inkscape:groupmode="layer"
       id="layer8"
       inkscape:label="cut"><path
         id="rect1-5"
         style="display:inline;fill:#afdde9;stroke:none;stroke-width:4.02469;stroke-linecap:square"
         d="m 316,137 c -5.53999,0 -10,4.46001 -10,10 V 254.58398 587 597 h 10 600 10 V 587 254.58398 147 c 0,-5.53999 -4.46001,-10 -10,-10 z"
         sodipodi:nodetypes="ssccccccccsss" /></g><g
       inkscape:groupmode="layer"
       id="layer9"
       inkscape:label="gwyneth-home-1"><image
         width="619.87895"
         height="464.90921"
         preserveAspectRatio="none"
         xlink:href="helpers/zooey-wordpress-theme.jpg"
         id="image1-6"
         x="306"
         y="137"
         style="stroke-width:2.75323"
         clip-path="url(#clipPath9)" /></g></g><g
     inkscape:groupmode="layer"
     id="layer7"
     inkscape:label="screen decorations"
     style="display:none"
     transform="translate(-166,-40)"
     sodipodi:insensitive="true" /><g
     inkscape:groupmode="layer"
     id="layer2"
     inkscape:label="text"
     transform="translate(0,-40)"
     style="display:none"
     sodipodi:insensitive="true"><rect
       style="display:inline;fill:#00ff00;stroke-width:6;stroke-linejoin:bevel;stroke-miterlimit:2;stroke-dashoffset:4.8"
       id="rect17"
       width="56.32"
       height="157"
       x="-160.256"
       y="0" /><g
       id="g17"
       transform="translate(0,-230.84)"><text
         xml:space="preserve"
         style="font-style:normal;font-variant:normal;font-weight:500;font-stretch:normal;font-size:18px;line-height:110%;font-family:'Satoshi Variable';-inkscape-font-specification:'Satoshi Variable Medium';text-decoration:none;text-decoration-line:none;text-decoration-color:#000000;letter-spacing:0px;word-spacing:0px;white-space:pre;opacity:1;fill:#ffffff;stroke-width:6;stroke-linejoin:bevel;stroke-miterlimit:2;stroke-dashoffset:4.8"
         x="534.97589"
         y="55.993"
         id="text11"><tspan
           sodipodi:role="line"
           id="tspan11"
           x="534.97589"
           y="55.993"
           style="font-style:normal;font-variant:normal;font-weight:500;font-stretch:normal;font-size:18px;font-family:'Satoshi Variable';-inkscape-font-specification:'Satoshi Variable Medium';stroke-width:6">ACCESSIBILITY READY</tspan><tspan
           sodipodi:role="line"
           x="534.97589"
           y="75.792999"
           id="tspan12"
           style="font-style:normal;font-variant:normal;font-weight:500;font-stretch:normal;font-size:18px;font-family:'Satoshi Variable';-inkscape-font-specification:'Satoshi Variable Medium';stroke-width:6">FULL SITE EDITING (FSE)</tspan><tspan
           sodipodi:role="line"
           x="534.97589"
           y="95.593002"
           id="tspan13"
           style="font-style:normal;font-variant:normal;font-weight:500;font-stretch:normal;font-size:18px;font-family:'Satoshi Variable';-inkscape-font-specification:'Satoshi Variable Medium';stroke-width:6">UNIVERSAL BLOCK THEME</tspan></text><g
         id="g16"
         transform="translate(100,40.899002)"><text
           xml:space="preserve"
           id="text1"
           style="font-style:normal;font-variant:normal;font-weight:bold;font-stretch:normal;font-size:42px;line-height:110%;font-family:'Satoshi Variable';-inkscape-font-specification:'Satoshi Variable Bold';text-decoration:none;text-decoration-line:none;text-decoration-color:#000000;letter-spacing:0px;word-spacing:0px;white-space:pre;shape-inside:url(#rect10-1);display:inline;opacity:1;fill:#ffffff;stroke-width:6;stroke-linejoin:bevel;stroke-miterlimit:2;stroke-dashoffset:4.8"
           transform="translate(-51.402,-37.788001)"><tspan
             x="188"
             y="69.036001"
             id="tspan2">HILDA</tspan></text><text
           xml:space="preserve"
           style="font-style:normal;font-variant:normal;font-weight:normal;font-stretch:normal;font-size:16px;line-height:110%;font-family:'Satoshi Variable';-inkscape-font-specification:'Satoshi Variable';text-decoration:none;text-decoration-line:none;text-decoration-color:#000000;letter-spacing:0px;word-spacing:0px;white-space:pre;opacity:1;fill:#ffffff;stroke-width:5.99998;stroke-linejoin:bevel;stroke-miterlimit:2;stroke-dashoffset:4.8"
           x="138.784"
           y="53.458"
           id="text14"><tspan
             sodipodi:role="line"
             id="tspan14"
             x="138.784"
             y="53.458"
             style="font-style:normal;font-variant:normal;font-weight:normal;font-stretch:normal;font-size:16px;font-family:'Satoshi Variable';-inkscape-font-specification:'Satoshi Variable';stroke-width:5.99998">by WebMan Design</tspan></text></g></g><g
       id="g30"
       inkscape:export-filename="hilda-logo-bw.png"
       inkscape:export-xdpi="96"
       inkscape:export-ydpi="96"
       transform="translate(223,-271.04903)"><path
         style="opacity:0.25;fill:#ffffff;fill-opacity:1;stroke:none;stroke-width:6;stroke-linejoin:bevel;stroke-miterlimit:2;stroke-dashoffset:4.8"
         d="m -60,81.291667 h 40 L 3,103.91728 v 31.37439 h -43 v -30 z"
         id="path29"
         sodipodi:nodetypes="ccccccc" /><path
         id="path30"
         style="fill:none;stroke:#ffffff;stroke-width:6;stroke-miterlimit:2;stroke-dashoffset:4.8;stroke-opacity:1"
         d="M -80,105.29167 V 81.291667 m 40,54.000003 v -30 L -60,85.291667 -80,105.29167 v 30" /></g><rect
       style="fill:#00d455;stroke:none;stroke-width:2;stroke-linejoin:bevel;stroke-miterlimit:2;stroke-dashoffset:4.8"
       id="rect12"
       width="45"
       height="158.33411"
       x="-147"
       y="661.66589" /><rect
       style="fill:#000000;stroke:none;stroke-width:2;stroke-linejoin:bevel;stroke-miterlimit:2;stroke-dashoffset:4.8;filter:url(#filter22)"
       id="rect11-0"
       width="400"
       height="70"
       x="250"
       y="905" /><g
       id="g22"
       transform="translate(0,200)"><rect
         style="fill:#964f4c;fill-opacity:1;stroke:#ffffff;stroke-width:2;stroke-linejoin:bevel;stroke-miterlimit:2;stroke-dashoffset:4.8"
         id="rect11"
         width="400"
         height="70"
         x="250"
         y="705" /><text
         xml:space="preserve"
         style="font-style:normal;font-variant:normal;font-weight:500;font-stretch:normal;font-size:22.5214px;line-height:1.38;font-family:'Satoshi Variable';-inkscape-font-specification:'Satoshi Variable Medium';text-align:center;text-decoration:none;text-decoration-line:none;text-decoration-color:#000000;letter-spacing:0px;word-spacing:0px;text-anchor:middle;white-space:pre;fill:#ffffff;stroke:none;stroke-width:20.019;stroke-linejoin:bevel;stroke-miterlimit:2;stroke-dashoffset:4.8"
         x="471.45972"
         y="747.74738"
         id="text2"><tspan
           sodipodi:role="line"
           id="tspan1"
           x="471.45972"
           y="747.74738"
           style="text-align:center;text-anchor:middle;stroke-width:20.019">QUICK VIDEO PREVIEW</tspan></text><use
         xlink:href="#phosphor-youtube-logo-light"
         id="use1"
         transform="translate(-418.26437,-2972)"
         style="fill:#ffffff" /><rect
         style="fill:#ffffff;stroke:none;stroke-width:0.283447;stroke-linejoin:bevel;stroke-miterlimit:2;stroke-dashoffset:4.8"
         id="rect13"
         width="30"
         height="2"
         x="249"
         y="739" /><rect
         style="fill:#ffffff;stroke:none;stroke-width:0.283447;stroke-linejoin:bevel;stroke-miterlimit:2;stroke-dashoffset:4.8"
         id="rect15"
         width="30"
         height="2"
         x="621"
         y="739" /></g></g><g
     id="g19"
     style="fill:none;fill-opacity:1;stroke:#5f1a37;stroke-opacity:1"
     transform="translate(0,1)"><circle
       style="opacity:1;fill:none;fill-opacity:1;stroke:#5f1a37;stroke-width:2;stroke-linecap:square;stroke-miterlimit:2;stroke-dashoffset:4.8;stroke-opacity:1"
       id="path18"
       cx="152"
       cy="106"
       r="3" /><circle
       style="opacity:1;fill:none;fill-opacity:1;stroke:#5f1a37;stroke-width:2;stroke-linecap:square;stroke-miterlimit:2;stroke-dashoffset:4.8;stroke-opacity:1"
       id="circle18"
       cx="164"
       cy="106"
       r="3" /><circle
       style="opacity:1;fill:none;fill-opacity:1;stroke:#5f1a37;stroke-width:2;stroke-linecap:square;stroke-miterlimit:2;stroke-dashoffset:4.8;stroke-opacity:1"
       id="circle19"
       cx="176"
       cy="106"
       r="3" /></g></svg>
